<svg width="201" height="50" viewBox="0 0 201 50" fill="none" xmlns="http://www.w3.org/2000/svg">
<path d="M40.8984 8.94727C40.8984 9.9043 40.7422 10.998 40.4297 12.2285C40.1367 13.4395 39.7461 14.748 39.2578 16.1543C38.7891 17.541 38.2422 19.0059 37.6172 20.5488C36.9922 22.0723 36.3477 23.6348 35.6836 25.2363C35.0391 26.8184 34.4043 28.4102 33.7793 30.0117C33.1543 31.5938 32.5977 33.1562 32.1094 34.6992C31.6406 36.2227 31.25 37.6973 30.9375 39.123C30.6445 40.5488 30.498 41.877 30.498 43.1074C30.498 44.4941 30.8496 45.6074 31.5527 46.4473C32.2559 47.2871 33.3887 47.707 34.9512 47.707C36.2402 47.707 37.4805 47.4043 38.6719 46.7988C39.8633 46.1934 41.0449 45.2949 42.2168 44.1035C43.4082 42.8926 44.6094 41.3887 45.8203 39.5918C47.0508 37.7949 48.3398 35.7051 49.6875 33.3223L51.2109 30.627L52.002 31.1836L50.4785 33.8789C49.0137 36.4766 47.627 38.7324 46.3184 40.6465C45.0098 42.5605 43.7109 44.1523 42.4219 45.4219C41.1523 46.6719 39.8438 47.5996 38.4961 48.2051C37.168 48.8301 35.7422 49.1426 34.2188 49.1426C32.7539 49.1426 31.5137 48.9766 30.498 48.6445C29.4824 48.3125 28.6523 47.8438 28.0078 47.2383C27.3633 46.6133 26.8945 45.8711 26.6016 45.0117C26.3281 44.1328 26.1914 43.1562 26.1914 42.082C26.1914 41.1445 26.3379 40.0215 26.6309 38.7129C26.9434 37.4043 27.3535 35.9883 27.8613 34.4648C28.3691 32.9219 28.9355 31.3008 29.5605 29.6016C30.2051 27.9023 30.8594 26.1934 31.5234 24.4746C32.207 22.7363 32.8613 21.0273 33.4863 19.3477C34.1309 17.6484 34.707 16.0469 35.2148 14.543C35.7227 13.0391 36.123 11.6621 36.416 10.4121C36.7285 9.16211 36.8848 8.09766 36.8848 7.21875C36.8848 5.55859 36.4551 4.26953 35.5957 3.35156C34.7559 2.43359 33.6621 1.97461 32.3145 1.97461C31.1426 1.97461 29.9609 2.30664 28.7695 2.9707C27.5977 3.63477 26.4062 4.60156 25.1953 5.87109C24.0039 7.12109 22.7832 8.66406 21.5332 10.5C20.3027 12.3164 19.0332 14.377 17.7246 16.6816L16.2598 19.2598L5.80078 48.0293H1.46484L13.0078 16.2129C13.1836 15.7832 13.3887 15.1777 13.623 14.3965C13.877 13.6152 14.1113 12.7656 14.3262 11.8477C14.5605 10.9102 14.7559 9.94336 14.9121 8.94727C15.0879 7.93164 15.1758 6.98438 15.1758 6.10547C15.1758 5.51953 15.127 4.97266 15.0293 4.46484C14.9512 3.95703 14.8047 3.52734 14.5898 3.17578C14.375 2.80469 14.0918 2.51172 13.7402 2.29688C13.4082 2.08203 12.9883 1.97461 12.4805 1.97461C11.6211 1.97461 10.7129 2.25781 9.75586 2.82422C8.81836 3.37109 7.85156 4.2207 6.85547 5.37305C5.85938 6.52539 4.84375 7.99023 3.80859 9.76758C2.79297 11.5254 1.78711 13.6055 0.791016 16.0078L0 15.4805C1.07422 12.8242 2.1582 10.5684 3.25195 8.71289C4.36523 6.85742 5.47852 5.35352 6.5918 4.20117C7.72461 3.0293 8.84766 2.17969 9.96094 1.65234C11.0938 1.125 12.2168 0.861328 13.3301 0.861328C14.4043 0.861328 15.293 1.06641 15.9961 1.47656C16.7188 1.88672 17.2852 2.45312 17.6953 3.17578C18.1055 3.87891 18.3887 4.70898 18.5449 5.66602C18.7207 6.60352 18.8086 7.60937 18.8086 8.68359C18.8086 9.42578 18.7402 10.2852 18.6035 11.2617C18.4668 12.2383 18.252 13.2637 17.959 14.3379C19.248 12.1504 20.498 10.2168 21.709 8.53711C22.9199 6.85742 24.1309 5.45117 25.3418 4.31836C26.5527 3.16602 27.7832 2.30664 29.0332 1.74023C30.2832 1.1543 31.5918 0.861328 32.959 0.861328C34.0332 0.861328 35.0488 1.03711 36.0059 1.38867C36.9824 1.74023 37.832 2.25781 38.5547 2.94141C39.2773 3.60547 39.8438 4.44531 40.2539 5.46094C40.6836 6.47656 40.8984 7.63867 40.8984 8.94727ZM122.695 14.1035L95.2441 42.5801C95.6543 42.4043 96.1035 42.2676 96.5918 42.1699C97.0801 42.0527 97.6074 41.9941 98.1738 41.9941C99.0527 41.9941 99.9707 42.0918 100.928 42.2871C101.904 42.4824 102.881 42.7266 103.857 43.0195C104.854 43.3125 105.82 43.625 106.758 43.957C107.715 44.2891 108.613 44.6016 109.453 44.8945C110.312 45.1875 111.094 45.4316 111.797 45.627C112.5 45.8223 113.096 45.9199 113.584 45.9199C114.053 45.9199 114.492 45.8906 114.902 45.832C115.332 45.7734 115.752 45.6758 116.162 45.5391C116.572 45.3828 116.973 45.1777 117.363 44.9238C117.773 44.6504 118.193 44.3184 118.623 43.9277C119.795 42.8145 121.016 41.3887 122.285 39.6504C123.574 37.8926 124.951 35.7832 126.416 33.3223L128.027 30.627L128.789 31.1836L127.178 33.8789C125.635 36.4766 124.229 38.6836 122.959 40.5C121.689 42.3164 120.439 43.8105 119.209 44.9824C118.447 45.7051 117.695 46.3008 116.953 46.7695C116.23 47.2383 115.488 47.6094 114.727 47.8828C113.965 48.1367 113.164 48.3125 112.324 48.4102C111.484 48.5078 110.566 48.5566 109.57 48.5566C108.828 48.5566 108.037 48.459 107.197 48.2637C106.357 48.0879 105.498 47.8633 104.619 47.5898C103.76 47.2969 102.891 46.9844 102.012 46.6523C101.133 46.3203 100.264 46.0176 99.4043 45.7441C98.5449 45.4512 97.7051 45.2168 96.8848 45.041C96.084 44.8457 95.3223 44.748 94.5996 44.748C94.0918 44.748 93.6719 44.8262 93.3398 44.9824C93.0273 45.1191 92.7051 45.3438 92.373 45.6562C92.0605 45.9688 91.6797 46.3691 91.2305 46.8574C90.8008 47.3262 90.2148 47.8926 89.4727 48.5566L88.7988 47.4434L118.33 16.5938C117.08 17.3945 115.85 18.0293 114.639 18.498C113.447 18.9668 112.246 19.2012 111.035 19.2012C110.312 19.2012 109.58 19.1133 108.838 18.9375C108.096 18.7422 107.354 18.5078 106.611 18.2344C105.869 17.9414 105.146 17.6289 104.443 17.2969C103.76 16.9648 103.115 16.6621 102.51 16.3887C101.924 16.0957 101.387 15.8613 100.898 15.6855C100.41 15.4902 100.01 15.3926 99.6973 15.3926C99.209 15.3926 98.6035 15.7051 97.8809 16.3301C97.1582 16.9355 96.3379 17.8242 95.4199 18.9961C94.5215 20.1484 93.5254 21.5742 92.4316 23.2734C91.3574 24.9727 90.2148 26.9062 89.0039 29.0742L87.4512 31.7988L86.6895 31.2715L88.2422 28.5176C89.8242 25.6855 91.2402 23.2734 92.4902 21.2812C93.7402 19.2695 94.9121 17.6289 96.0059 16.3594C97.0996 15.0703 98.1641 14.1328 99.1992 13.5469C100.254 12.9414 101.377 12.6387 102.568 12.6387C103.662 12.6387 104.707 12.8438 105.703 13.2539C106.699 13.6445 107.676 14.0742 108.633 14.543C109.609 15.0117 110.576 15.4512 111.533 15.8613C112.51 16.252 113.525 16.4473 114.58 16.4473C115.596 16.4473 116.699 16.1934 117.891 15.6855C119.082 15.1777 120.42 14.2598 121.904 12.9316L122.695 14.1035ZM163.652 14.1035L136.201 42.5801C136.611 42.4043 137.061 42.2676 137.549 42.1699C138.037 42.0527 138.564 41.9941 139.131 41.9941C140.01 41.9941 140.928 42.0918 141.885 42.2871C142.861 42.4824 143.838 42.7266 144.814 43.0195C145.811 43.3125 146.777 43.625 147.715 43.957C148.672 44.2891 149.57 44.6016 150.41 44.8945C151.27 45.1875 152.051 45.4316 152.754 45.627C153.457 45.8223 154.053 45.9199 154.541 45.9199C155.01 45.9199 155.449 45.8906 155.859 45.832C156.289 45.7734 156.709 45.6758 157.119 45.5391C157.529 45.3828 157.93 45.1777 158.32 44.9238C158.73 44.6504 159.15 44.3184 159.58 43.9277C160.752 42.8145 161.973 41.3887 163.242 39.6504C164.531 37.8926 165.908 35.7832 167.373 33.3223L168.984 30.627L169.746 31.1836L168.135 33.8789C166.592 36.4766 165.186 38.6836 163.916 40.5C162.646 42.3164 161.396 43.8105 160.166 44.9824C159.404 45.7051 158.652 46.3008 157.91 46.7695C157.188 47.2383 156.445 47.6094 155.684 47.8828C154.922 48.1367 154.121 48.3125 153.281 48.4102C152.441 48.5078 151.523 48.5566 150.527 48.5566C149.785 48.5566 148.994 48.459 148.154 48.2637C147.314 48.0879 146.455 47.8633 145.576 47.5898C144.717 47.2969 143.848 46.9844 142.969 46.6523C142.09 46.3203 141.221 46.0176 140.361 45.7441C139.502 45.4512 138.662 45.2168 137.842 45.041C137.041 44.8457 136.279 44.748 135.557 44.748C135.049 44.748 134.629 44.8262 134.297 44.9824C133.984 45.1191 133.662 45.3438 133.33 45.6562C133.018 45.9688 132.637 46.3691 132.188 46.8574C131.758 47.3262 131.172 47.8926 130.43 48.5566L129.756 47.4434L159.287 16.5938C158.037 17.3945 156.807 18.0293 155.596 18.498C154.404 18.9668 153.203 19.2012 151.992 19.2012C151.27 19.2012 150.537 19.1133 149.795 18.9375C149.053 18.7422 148.311 18.5078 147.568 18.2344C146.826 17.9414 146.104 17.6289 145.4 17.2969C144.717 16.9648 144.072 16.6621 143.467 16.3887C142.881 16.0957 142.344 15.8613 141.855 15.6855C141.367 15.4902 140.967 15.3926 140.654 15.3926C140.166 15.3926 139.561 15.7051 138.838 16.3301C138.115 16.9355 137.295 17.8242 136.377 18.9961C135.479 20.1484 134.482 21.5742 133.389 23.2734C132.314 24.9727 131.172 26.9062 129.961 29.0742L128.408 31.7988L127.646 31.2715L129.199 28.5176C130.781 25.6855 132.197 23.2734 133.447 21.2812C134.697 19.2695 135.869 17.6289 136.963 16.3594C138.057 15.0703 139.121 14.1328 140.156 13.5469C141.211 12.9414 142.334 12.6387 143.525 12.6387C144.619 12.6387 145.664 12.8438 146.66 13.2539C147.656 13.6445 148.633 14.0742 149.59 14.543C150.566 15.0117 151.533 15.4512 152.49 15.8613C153.467 16.252 154.482 16.4473 155.537 16.4473C156.553 16.4473 157.656 16.1934 158.848 15.6855C160.039 15.1777 161.377 14.2598 162.861 12.9316L163.652 14.1035ZM179.004 48.5566C175.469 48.5566 172.744 47.6387 170.83 45.8027C168.916 43.9473 167.959 41.1934 167.959 37.541C167.959 36.5449 168.037 35.4902 168.193 34.377C168.33 33.2637 168.555 32.1211 168.867 30.9492C169.57 28.332 170.557 25.9102 171.826 23.6836C173.115 21.457 174.59 19.5332 176.25 17.9121C177.91 16.291 179.697 15.0215 181.611 14.1035C183.525 13.1855 185.449 12.7266 187.383 12.7266C189.336 12.7266 190.869 13.1855 191.982 14.1035C193.115 15.0215 193.682 16.3105 193.682 17.9707C193.682 18.9082 193.496 19.8262 193.125 20.7246C192.754 21.623 192.217 22.4727 191.514 23.2734C190.811 24.0742 189.961 24.8262 188.965 25.5293C187.988 26.2129 186.885 26.8086 185.654 27.3164C184.131 27.9609 182.451 28.4492 180.615 28.7812C178.779 29.0938 176.689 29.25 174.346 29.25C173.779 30.832 173.33 32.4824 172.998 34.2012C172.686 35.9004 172.529 37.6387 172.529 39.416C172.529 42.1309 173.096 44.0938 174.229 45.3047C175.381 46.4961 177.188 47.0918 179.648 47.0918C181.699 47.0918 183.652 46.7012 185.508 45.9199C187.363 45.1191 189.082 44.0742 190.664 42.7852C192.246 41.4961 193.691 40.0312 195 38.3906C196.309 36.7305 197.451 35.041 198.428 33.3223L199.951 30.627L200.742 31.1836L199.219 33.8789C198.008 36.0078 196.68 37.9707 195.234 39.7676C193.809 41.5645 192.246 43.1172 190.547 44.4258C188.867 45.7148 187.061 46.7305 185.127 47.4727C183.213 48.1953 181.172 48.5566 179.004 48.5566ZM188.203 13.8984C186.973 13.8984 185.713 14.2598 184.424 14.9824C183.154 15.7051 181.924 16.7109 180.732 18C179.541 19.2695 178.428 20.7734 177.393 22.5117C176.357 24.25 175.459 26.1445 174.697 28.1953C176.846 28.1562 178.682 27.9707 180.205 27.6387C181.729 27.2871 183.057 26.8477 184.189 26.3203C185.088 25.9102 185.957 25.3828 186.797 24.7383C187.656 24.0742 188.408 23.3223 189.053 22.4824C189.717 21.6426 190.244 20.7344 190.635 19.7578C191.045 18.7812 191.25 17.7656 191.25 16.7109C191.25 16.1836 191.172 15.7441 191.016 15.3926C190.859 15.041 190.645 14.7578 190.371 14.543C190.098 14.3086 189.775 14.1426 189.404 14.0449C189.033 13.9473 188.633 13.8984 188.203 13.8984Z" fill="#212121"/>
<path d="M50.9766 30.9785C51.6602 28.3613 52.6562 25.9395 53.9648 23.7129C55.293 21.4863 56.8066 19.5625 58.5059 17.9414C60.2246 16.3008 62.0801 15.0215 64.0723 14.1035C66.084 13.1855 68.1055 12.7266 70.1367 12.7266C71.7773 12.7266 73.1543 13.0098 74.2676 13.5762C75.4004 14.123 76.3086 14.8652 76.9922 15.8027C77.6758 16.7402 78.1641 17.8242 78.457 19.0547C78.75 20.2852 78.8965 21.5742 78.8965 22.9219C78.8965 24.3867 78.75 25.8516 78.457 27.3164C78.1836 28.7812 77.8223 30.1777 77.373 31.5059C76.5332 33.9668 75.4492 36.2422 74.1211 38.332C72.793 40.4023 71.3086 42.1992 69.668 43.7227C68.0469 45.2461 66.3184 46.4375 64.4824 47.2969C62.6465 48.1367 60.8105 48.5566 58.9746 48.5566C57.5879 48.5566 56.3379 48.3125 55.2246 47.8242C54.1309 47.3164 53.2031 46.5938 52.4414 45.6562C51.6797 44.7188 51.0938 43.5762 50.6836 42.2285C50.2734 40.8613 50.0684 39.3281 50.0684 37.6289C50.0684 36.5547 50.1465 35.4609 50.3027 34.3477C50.459 33.2148 50.6836 32.0918 50.9766 30.9785ZM59.4141 47.0918C60.8203 47.0918 62.2461 46.6914 63.6914 45.8906C65.1562 45.0898 66.5625 43.9766 67.9102 42.5508C69.2773 41.1055 70.5469 39.3867 71.7188 37.3945C72.8906 35.4023 73.8965 33.2148 74.7363 30.832C74.9707 30.1875 75.1953 29.4648 75.4102 28.6641C75.6445 27.8633 75.8594 27.0332 76.0547 26.1738C76.25 25.2949 76.4062 24.4062 76.5234 23.5078C76.6406 22.5898 76.6992 21.7012 76.6992 20.8418C76.6992 19.9043 76.6113 19.0156 76.4355 18.1758C76.2598 17.3164 75.957 16.5742 75.5273 15.9492C75.1172 15.3242 74.5508 14.8262 73.8281 14.4551C73.125 14.084 72.2461 13.8984 71.1914 13.8984C69.668 13.8984 68.1543 14.3086 66.6504 15.1289C65.166 15.9297 63.75 17.0723 62.4023 18.5566C61.0742 20.0215 59.8633 21.7793 58.7695 23.8301C57.6758 25.8809 56.7676 28.1465 56.0449 30.627C55.5566 32.2871 55.1758 33.957 54.9023 35.6367C54.6484 37.2969 54.5215 38.8105 54.5215 40.1777C54.5215 44.7871 56.1523 47.0918 59.4141 47.0918Z" fill="#DFB19B"/>
</svg>
