<svg width="226" height="88" viewBox="0 0 226 88" fill="none" xmlns="http://www.w3.org/2000/svg">
<path d="M40.8984 26.9473C40.8984 27.9043 40.7422 28.998 40.4297 30.2285C40.1367 31.4395 39.7461 32.748 39.2578 34.1543C38.7891 35.541 38.2422 37.0059 37.6172 38.5488C36.9922 40.0723 36.3477 41.6348 35.6836 43.2363C35.0391 44.8184 34.4043 46.4102 33.7793 48.0117C33.1543 49.5938 32.5977 51.1562 32.1094 52.6992C31.6406 54.2227 31.25 55.6973 30.9375 57.123C30.6445 58.5488 30.498 59.877 30.498 61.1074C30.498 62.4941 30.8496 63.6074 31.5527 64.4473C32.2559 65.2871 33.3887 65.707 34.9512 65.707C36.2402 65.707 37.4805 65.4043 38.6719 64.7988C39.8633 64.1934 41.0449 63.2949 42.2168 62.1035C43.4082 60.8926 44.6094 59.3887 45.8203 57.5918C47.0508 55.7949 48.3398 53.7051 49.6875 51.3223L51.2109 48.627L52.002 49.1836L50.4785 51.8789C49.0137 54.4766 47.627 56.7324 46.3184 58.6465C45.0098 60.5605 43.7109 62.1523 42.4219 63.4219C41.1523 64.6719 39.8438 65.5996 38.4961 66.2051C37.168 66.8301 35.7422 67.1426 34.2188 67.1426C32.7539 67.1426 31.5137 66.9766 30.498 66.6445C29.4824 66.3125 28.6523 65.8438 28.0078 65.2383C27.3633 64.6133 26.8945 63.8711 26.6016 63.0117C26.3281 62.1328 26.1914 61.1562 26.1914 60.082C26.1914 59.1445 26.3379 58.0215 26.6309 56.7129C26.9434 55.4043 27.3535 53.9883 27.8613 52.4648C28.3691 50.9219 28.9355 49.3008 29.5605 47.6016C30.2051 45.9023 30.8594 44.1934 31.5234 42.4746C32.207 40.7363 32.8613 39.0273 33.4863 37.3477C34.1309 35.6484 34.707 34.0469 35.2148 32.543C35.7227 31.0391 36.123 29.6621 36.416 28.4121C36.7285 27.1621 36.8848 26.0977 36.8848 25.2188C36.8848 23.5586 36.4551 22.2695 35.5957 21.3516C34.7559 20.4336 33.6621 19.9746 32.3145 19.9746C31.1426 19.9746 29.9609 20.3066 28.7695 20.9707C27.5977 21.6348 26.4062 22.6016 25.1953 23.8711C24.0039 25.1211 22.7832 26.6641 21.5332 28.5C20.3027 30.3164 19.0332 32.377 17.7246 34.6816L16.2598 37.2598L5.80078 66.0293H1.46484L13.0078 34.2129C13.1836 33.7832 13.3887 33.1777 13.623 32.3965C13.877 31.6152 14.1113 30.7656 14.3262 29.8477C14.5605 28.9102 14.7559 27.9434 14.9121 26.9473C15.0879 25.9316 15.1758 24.9844 15.1758 24.1055C15.1758 23.5195 15.127 22.9727 15.0293 22.4648C14.9512 21.957 14.8047 21.5273 14.5898 21.1758C14.375 20.8047 14.0918 20.5117 13.7402 20.2969C13.4082 20.082 12.9883 19.9746 12.4805 19.9746C11.6211 19.9746 10.7129 20.2578 9.75586 20.8242C8.81836 21.3711 7.85156 22.2207 6.85547 23.373C5.85938 24.5254 4.84375 25.9902 3.80859 27.7676C2.79297 29.5254 1.78711 31.6055 0.791016 34.0078L0 33.4805C1.07422 30.8242 2.1582 28.5684 3.25195 26.7129C4.36523 24.8574 5.47852 23.3535 6.5918 22.2012C7.72461 21.0293 8.84766 20.1797 9.96094 19.6523C11.0938 19.125 12.2168 18.8613 13.3301 18.8613C14.4043 18.8613 15.293 19.0664 15.9961 19.4766C16.7188 19.8867 17.2852 20.4531 17.6953 21.1758C18.1055 21.8789 18.3887 22.709 18.5449 23.666C18.7207 24.6035 18.8086 25.6094 18.8086 26.6836C18.8086 27.4258 18.7402 28.2852 18.6035 29.2617C18.4668 30.2383 18.252 31.2637 17.959 32.3379C19.248 30.1504 20.498 28.2168 21.709 26.5371C22.9199 24.8574 24.1309 23.4512 25.3418 22.3184C26.5527 21.166 27.7832 20.3066 29.0332 19.7402C30.2832 19.1543 31.5918 18.8613 32.959 18.8613C34.0332 18.8613 35.0488 19.0371 36.0059 19.3887C36.9824 19.7402 37.832 20.2578 38.5547 20.9414C39.2773 21.6055 39.8438 22.4453 40.2539 23.4609C40.6836 24.4766 40.8984 25.6387 40.8984 26.9473ZM122.695 32.1035L95.2441 60.5801C95.6543 60.4043 96.1035 60.2676 96.5918 60.1699C97.0801 60.0527 97.6074 59.9941 98.1738 59.9941C99.0527 59.9941 99.9707 60.0918 100.928 60.2871C101.904 60.4824 102.881 60.7266 103.857 61.0195C104.854 61.3125 105.82 61.625 106.758 61.957C107.715 62.2891 108.613 62.6016 109.453 62.8945C110.312 63.1875 111.094 63.4316 111.797 63.627C112.5 63.8223 113.096 63.9199 113.584 63.9199C114.053 63.9199 114.492 63.8906 114.902 63.832C115.332 63.7734 115.752 63.6758 116.162 63.5391C116.572 63.3828 116.973 63.1777 117.363 62.9238C117.773 62.6504 118.193 62.3184 118.623 61.9277C119.795 60.8145 121.016 59.3887 122.285 57.6504C123.574 55.8926 124.951 53.7832 126.416 51.3223L128.027 48.627L128.789 49.1836L127.178 51.8789C125.635 54.4766 124.229 56.6836 122.959 58.5C121.689 60.3164 120.439 61.8105 119.209 62.9824C118.447 63.7051 117.695 64.3008 116.953 64.7695C116.23 65.2383 115.488 65.6094 114.727 65.8828C113.965 66.1367 113.164 66.3125 112.324 66.4102C111.484 66.5078 110.566 66.5566 109.57 66.5566C108.828 66.5566 108.037 66.459 107.197 66.2637C106.357 66.0879 105.498 65.8633 104.619 65.5898C103.76 65.2969 102.891 64.9844 102.012 64.6523C101.133 64.3203 100.264 64.0176 99.4043 63.7441C98.5449 63.4512 97.7051 63.2168 96.8848 63.041C96.084 62.8457 95.3223 62.748 94.5996 62.748C94.0918 62.748 93.6719 62.8262 93.3398 62.9824C93.0273 63.1191 92.7051 63.3438 92.373 63.6562C92.0605 63.9688 91.6797 64.3691 91.2305 64.8574C90.8008 65.3262 90.2148 65.8926 89.4727 66.5566L88.7988 65.4434L118.33 34.5938C117.08 35.3945 115.85 36.0293 114.639 36.498C113.447 36.9668 112.246 37.2012 111.035 37.2012C110.312 37.2012 109.58 37.1133 108.838 36.9375C108.096 36.7422 107.354 36.5078 106.611 36.2344C105.869 35.9414 105.146 35.6289 104.443 35.2969C103.76 34.9648 103.115 34.6621 102.51 34.3887C101.924 34.0957 101.387 33.8613 100.898 33.6855C100.41 33.4902 100.01 33.3926 99.6973 33.3926C99.209 33.3926 98.6035 33.7051 97.8809 34.3301C97.1582 34.9355 96.3379 35.8242 95.4199 36.9961C94.5215 38.1484 93.5254 39.5742 92.4316 41.2734C91.3574 42.9727 90.2148 44.9062 89.0039 47.0742L87.4512 49.7988L86.6895 49.2715L88.2422 46.5176C89.8242 43.6855 91.2402 41.2734 92.4902 39.2812C93.7402 37.2695 94.9121 35.6289 96.0059 34.3594C97.0996 33.0703 98.1641 32.1328 99.1992 31.5469C100.254 30.9414 101.377 30.6387 102.568 30.6387C103.662 30.6387 104.707 30.8438 105.703 31.2539C106.699 31.6445 107.676 32.0742 108.633 32.543C109.609 33.0117 110.576 33.4512 111.533 33.8613C112.51 34.252 113.525 34.4473 114.58 34.4473C115.596 34.4473 116.699 34.1934 117.891 33.6855C119.082 33.1777 120.42 32.2598 121.904 30.9316L122.695 32.1035ZM163.652 32.1035L136.201 60.5801C136.611 60.4043 137.061 60.2676 137.549 60.1699C138.037 60.0527 138.564 59.9941 139.131 59.9941C140.01 59.9941 140.928 60.0918 141.885 60.2871C142.861 60.4824 143.838 60.7266 144.814 61.0195C145.811 61.3125 146.777 61.625 147.715 61.957C148.672 62.2891 149.57 62.6016 150.41 62.8945C151.27 63.1875 152.051 63.4316 152.754 63.627C153.457 63.8223 154.053 63.9199 154.541 63.9199C155.01 63.9199 155.449 63.8906 155.859 63.832C156.289 63.7734 156.709 63.6758 157.119 63.5391C157.529 63.3828 157.93 63.1777 158.32 62.9238C158.73 62.6504 159.15 62.3184 159.58 61.9277C160.752 60.8145 161.973 59.3887 163.242 57.6504C164.531 55.8926 165.908 53.7832 167.373 51.3223L168.984 48.627L169.746 49.1836L168.135 51.8789C166.592 54.4766 165.186 56.6836 163.916 58.5C162.646 60.3164 161.396 61.8105 160.166 62.9824C159.404 63.7051 158.652 64.3008 157.91 64.7695C157.188 65.2383 156.445 65.6094 155.684 65.8828C154.922 66.1367 154.121 66.3125 153.281 66.4102C152.441 66.5078 151.523 66.5566 150.527 66.5566C149.785 66.5566 148.994 66.459 148.154 66.2637C147.314 66.0879 146.455 65.8633 145.576 65.5898C144.717 65.2969 143.848 64.9844 142.969 64.6523C142.09 64.3203 141.221 64.0176 140.361 63.7441C139.502 63.4512 138.662 63.2168 137.842 63.041C137.041 62.8457 136.279 62.748 135.557 62.748C135.049 62.748 134.629 62.8262 134.297 62.9824C133.984 63.1191 133.662 63.3438 133.33 63.6562C133.018 63.9688 132.637 64.3691 132.188 64.8574C131.758 65.3262 131.172 65.8926 130.43 66.5566L129.756 65.4434L159.287 34.5938C158.037 35.3945 156.807 36.0293 155.596 36.498C154.404 36.9668 153.203 37.2012 151.992 37.2012C151.27 37.2012 150.537 37.1133 149.795 36.9375C149.053 36.7422 148.311 36.5078 147.568 36.2344C146.826 35.9414 146.104 35.6289 145.4 35.2969C144.717 34.9648 144.072 34.6621 143.467 34.3887C142.881 34.0957 142.344 33.8613 141.855 33.6855C141.367 33.4902 140.967 33.3926 140.654 33.3926C140.166 33.3926 139.561 33.7051 138.838 34.3301C138.115 34.9355 137.295 35.8242 136.377 36.9961C135.479 38.1484 134.482 39.5742 133.389 41.2734C132.314 42.9727 131.172 44.9062 129.961 47.0742L128.408 49.7988L127.646 49.2715L129.199 46.5176C130.781 43.6855 132.197 41.2734 133.447 39.2812C134.697 37.2695 135.869 35.6289 136.963 34.3594C138.057 33.0703 139.121 32.1328 140.156 31.5469C141.211 30.9414 142.334 30.6387 143.525 30.6387C144.619 30.6387 145.664 30.8438 146.66 31.2539C147.656 31.6445 148.633 32.0742 149.59 32.543C150.566 33.0117 151.533 33.4512 152.49 33.8613C153.467 34.252 154.482 34.4473 155.537 34.4473C156.553 34.4473 157.656 34.1934 158.848 33.6855C160.039 33.1777 161.377 32.2598 162.861 30.9316L163.652 32.1035ZM179.004 66.5566C175.469 66.5566 172.744 65.6387 170.83 63.8027C168.916 61.9473 167.959 59.1934 167.959 55.541C167.959 54.5449 168.037 53.4902 168.193 52.377C168.33 51.2637 168.555 50.1211 168.867 48.9492C169.57 46.332 170.557 43.9102 171.826 41.6836C173.115 39.457 174.59 37.5332 176.25 35.9121C177.91 34.291 179.697 33.0215 181.611 32.1035C183.525 31.1855 185.449 30.7266 187.383 30.7266C189.336 30.7266 190.869 31.1855 191.982 32.1035C193.115 33.0215 193.682 34.3105 193.682 35.9707C193.682 36.9082 193.496 37.8262 193.125 38.7246C192.754 39.623 192.217 40.4727 191.514 41.2734C190.811 42.0742 189.961 42.8262 188.965 43.5293C187.988 44.2129 186.885 44.8086 185.654 45.3164C184.131 45.9609 182.451 46.4492 180.615 46.7812C178.779 47.0938 176.689 47.25 174.346 47.25C173.779 48.832 173.33 50.4824 172.998 52.2012C172.686 53.9004 172.529 55.6387 172.529 57.416C172.529 60.1309 173.096 62.0938 174.229 63.3047C175.381 64.4961 177.188 65.0918 179.648 65.0918C181.699 65.0918 183.652 64.7012 185.508 63.9199C187.363 63.1191 189.082 62.0742 190.664 60.7852C192.246 59.4961 193.691 58.0312 195 56.3906C196.309 54.7305 197.451 53.041 198.428 51.3223L199.951 48.627L200.742 49.1836L199.219 51.8789C198.008 54.0078 196.68 55.9707 195.234 57.7676C193.809 59.5645 192.246 61.1172 190.547 62.4258C188.867 63.7148 187.061 64.7305 185.127 65.4727C183.213 66.1953 181.172 66.5566 179.004 66.5566ZM188.203 31.8984C186.973 31.8984 185.713 32.2598 184.424 32.9824C183.154 33.7051 181.924 34.7109 180.732 36C179.541 37.2695 178.428 38.7734 177.393 40.5117C176.357 42.25 175.459 44.1445 174.697 46.1953C176.846 46.1562 178.682 45.9707 180.205 45.6387C181.729 45.2871 183.057 44.8477 184.189 44.3203C185.088 43.9102 185.957 43.3828 186.797 42.7383C187.656 42.0742 188.408 41.3223 189.053 40.4824C189.717 39.6426 190.244 38.7344 190.635 37.7578C191.045 36.7812 191.25 35.7656 191.25 34.7109C191.25 34.1836 191.172 33.7441 191.016 33.3926C190.859 33.041 190.645 32.7578 190.371 32.543C190.098 32.3086 189.775 32.1426 189.404 32.0449C189.033 31.9473 188.633 31.8984 188.203 31.8984Z" fill="white"/>
<path d="M50.9766 48.9785C51.6602 46.3613 52.6562 43.9395 53.9648 41.7129C55.293 39.4863 56.8066 37.5625 58.5059 35.9414C60.2246 34.3008 62.0801 33.0215 64.0723 32.1035C66.084 31.1855 68.1055 30.7266 70.1367 30.7266C71.7773 30.7266 73.1543 31.0098 74.2676 31.5762C75.4004 32.123 76.3086 32.8652 76.9922 33.8027C77.6758 34.7402 78.1641 35.8242 78.457 37.0547C78.75 38.2852 78.8965 39.5742 78.8965 40.9219C78.8965 42.3867 78.75 43.8516 78.457 45.3164C78.1836 46.7812 77.8223 48.1777 77.373 49.5059C76.5332 51.9668 75.4492 54.2422 74.1211 56.332C72.793 58.4023 71.3086 60.1992 69.668 61.7227C68.0469 63.2461 66.3184 64.4375 64.4824 65.2969C62.6465 66.1367 60.8105 66.5566 58.9746 66.5566C57.5879 66.5566 56.3379 66.3125 55.2246 65.8242C54.1309 65.3164 53.2031 64.5938 52.4414 63.6562C51.6797 62.7188 51.0938 61.5762 50.6836 60.2285C50.2734 58.8613 50.0684 57.3281 50.0684 55.6289C50.0684 54.5547 50.1465 53.4609 50.3027 52.3477C50.459 51.2148 50.6836 50.0918 50.9766 48.9785ZM59.4141 65.0918C60.8203 65.0918 62.2461 64.6914 63.6914 63.8906C65.1562 63.0898 66.5625 61.9766 67.9102 60.5508C69.2773 59.1055 70.5469 57.3867 71.7188 55.3945C72.8906 53.4023 73.8965 51.2148 74.7363 48.832C74.9707 48.1875 75.1953 47.4648 75.4102 46.6641C75.6445 45.8633 75.8594 45.0332 76.0547 44.1738C76.25 43.2949 76.4062 42.4062 76.5234 41.5078C76.6406 40.5898 76.6992 39.7012 76.6992 38.8418C76.6992 37.9043 76.6113 37.0156 76.4355 36.1758C76.2598 35.3164 75.957 34.5742 75.5273 33.9492C75.1172 33.3242 74.5508 32.8262 73.8281 32.4551C73.125 32.084 72.2461 31.8984 71.1914 31.8984C69.668 31.8984 68.1543 32.3086 66.6504 33.1289C65.166 33.9297 63.75 35.0723 62.4023 36.5566C61.0742 38.0215 59.8633 39.7793 58.7695 41.8301C57.6758 43.8809 56.7676 46.1465 56.0449 48.627C55.5566 50.2871 55.1758 51.957 54.9023 53.6367C54.6484 55.2969 54.5215 56.8105 54.5215 58.1777C54.5215 62.7871 56.1523 65.0918 59.4141 65.0918Z" fill="#DFB19B"/>
</svg>
